<?xml version="1.0" encoding="UTF-8" standalone="no"?>
<!-- Created with Inkscape (http://www.inkscape.org/) -->

<svg
   version="1.1"
   id="svg1"
   width="1881"
   height="946"
   viewBox="0 0 1881 946"
   sodipodi:docname="accounting-plus-logo.svg"
   inkscape:version="1.3 (0e150ed6c4, 2023-07-21)"
   xmlns:inkscape="http://www.inkscape.org/namespaces/inkscape"
   xmlns:sodipodi="http://sodipodi.sourceforge.net/DTD/sodipodi-0.dtd"
   xmlns="http://www.w3.org/2000/svg"
   xmlns:svg="http://www.w3.org/2000/svg">
  <defs
     id="defs1" />
  <sodipodi:namedview
     id="namedview1"
     pagecolor="#ffffff"
     bordercolor="#000000"
     borderopacity="0.25"
     inkscape:showpageshadow="2"
     inkscape:pageopacity="0.0"
     inkscape:pagecheckerboard="0"
     inkscape:deskcolor="#d1d1d1"
     inkscape:zoom="0.61775651"
     inkscape:cx="940.5"
     inkscape:cy="473.48752"
     inkscape:window-width="1920"
     inkscape:window-height="1017"
     inkscape:window-x="1912"
     inkscape:window-y="-8"
     inkscape:window-maximized="1"
     inkscape:current-layer="g1" />
  <g
     inkscape:groupmode="layer"
     inkscape:label="Image"
     id="g1">
    <g
       id="g2"
       transform="translate(42.087779,46.94406)">
      <path
         style="fill:#bfe7ca"
         d="m 406.25,755.31067 c 0.9625,-0.25152 2.5375,-0.25152 3.5,0 0.9625,0.25153 0.175,0.45733 -1.75,0.45733 -1.925,0 -2.7125,-0.2058 -1.75,-0.45733 z m 28,0 c 0.9625,-0.25152 2.5375,-0.25152 3.5,0 0.9625,0.25153 0.175,0.45733 -1.75,0.45733 -1.925,0 -2.7125,-0.2058 -1.75,-0.45733 z m -44.5,-13.97295 c 0.6875,-0.27741 1.8125,-0.27741 2.5,0 0.6875,0.27741 0.125,0.50439 -1.25,0.50439 -1.375,0 -1.9375,-0.22698 -1.25,-0.50439 z m 42,0 c 0.6875,-0.27741 1.8125,-0.27741 2.5,0 0.6875,0.27741 0.125,0.50439 -1.25,0.50439 -1.375,0 -1.9375,-0.22698 -1.25,-0.50439 z m 25.0625,-1.02083 c 0.72187,-0.28887 1.58438,-0.25335 1.91667,0.0789 0.33229,0.33229 -0.25834,0.56864 -1.3125,0.52522 -1.16495,-0.048 -1.4019,-0.28494 -0.60417,-0.60416 z m -53,-56 c 0.72187,-0.28887 1.58438,-0.25335 1.91667,0.0789 0.33229,0.33229 -0.25834,0.56864 -1.3125,0.52522 -1.16495,-0.048 -1.4019,-0.28494 -0.60417,-0.60416 z M 288.54271,658.0691 c -0.31644,-0.512 -0.19299,-1.1672 0.27431,-1.45601 0.46731,-0.28881 0.84965,0.13009 0.84965,0.9309 0,1.68617 -0.31534,1.83349 -1.12396,0.52511 z M 71.157895,648 c 0,-1.375 0.226973,-1.9375 0.504386,-1.25 0.277412,0.6875 0.277412,1.8125 0,2.5 -0.277413,0.6875 -0.504386,0.125 -0.504386,-1.25 z M 327.75,490.33772 c 0.6875,-0.27741 1.8125,-0.27741 2.5,0 0.6875,0.27741 0.125,0.50439 -1.25,0.50439 -1.375,0 -1.9375,-0.22698 -1.25,-0.50439 z m 67.0625,-21.02083 c 0.72187,-0.28887 1.58438,-0.25335 1.91667,0.0789 0.33229,0.33229 -0.25834,0.56864 -1.3125,0.52522 -1.16495,-0.048 -1.4019,-0.28494 -0.60417,-0.60416 z m 77,0 c 0.72187,-0.28887 1.58438,-0.25335 1.91667,0.0789 0.33229,0.33229 -0.25834,0.56864 -1.3125,0.52522 -1.16495,-0.048 -1.4019,-0.28494 -0.60417,-0.60416 z M 636.5,463 c -0.33992,-0.55 -0.14148,-1 0.44098,-1 0.58246,0 1.05902,0.45 1.05902,1 0,0.55 -0.19844,1 -0.44098,1 -0.24254,0 -0.7191,-0.45 -1.05902,-1 z M 414.76166,410.29274 c 1.24391,-0.23919 3.04391,-0.23011 4,0.0202 0.95609,0.25029 -0.0617,0.446 -2.26166,0.4349 -2.2,-0.0111 -2.98225,-0.21589 -1.73834,-0.45508 z m -8.94916,-9.97585 c 0.72187,-0.28887 1.58438,-0.25335 1.91667,0.0789 0.33229,0.33229 -0.25834,0.56864 -1.3125,0.52522 -1.16495,-0.048 -1.4019,-0.28494 -0.60417,-0.60416 z m 63,0 c 0.72187,-0.28887 1.58438,-0.25335 1.91667,0.0789 0.33229,0.33229 -0.25834,0.56864 -1.3125,0.52522 -1.16495,-0.048 -1.4019,-0.28494 -0.60417,-0.60416 z M 481.87244,349.25 c -1.24387,-1.58606 -1.2085,-1.62143 0.37756,-0.37756 1.66575,1.30637 2.19548,2.12756 1.37244,2.12756 -0.20765,0 -0.99515,-0.7875 -1.75,-1.75 z M 1517.25,343.31067 c 0.9625,-0.25152 2.5375,-0.25152 3.5,0 0.9625,0.25153 0.175,0.45733 -1.75,0.45733 -1.925,0 -2.7125,-0.2058 -1.75,-0.45733 z m 63.8289,-43.894 c 0.048,-1.16495 0.285,-1.4019 0.6042,-0.60417 0.2889,0.72187 0.2534,1.58438 -0.079,1.91667 -0.3323,0.33229 -0.5687,-0.25834 -0.5253,-1.3125 z M 879.8125,289.31689 c 0.72187,-0.28887 1.58438,-0.25335 1.91667,0.0789 0.33229,0.33229 -0.25834,0.56864 -1.3125,0.52522 -1.16495,-0.048 -1.4019,-0.28494 -0.60417,-0.60416 z M 439.25218,279.5 c 0.0111,-2.2 0.21589,-2.98225 0.45508,-1.73834 0.23919,1.24391 0.23011,3.04391 -0.0202,4 -0.25029,0.95609 -0.446,-0.0617 -0.4349,-2.26166 z m 617.56032,-4.18311 c 0.7219,-0.28887 1.5844,-0.25335 1.9167,0.0789 0.3323,0.33229 -0.2584,0.56864 -1.3125,0.52522 -1.165,-0.048 -1.4019,-0.28494 -0.6042,-0.60416 z M 1180.4313,244.5 c 6e-4,-13.2 0.1429,-18.46169 0.3162,-11.69265 0.1732,6.76904 0.1727,17.56904 0,24 -0.1739,6.43096 -0.3157,0.89265 -0.315,-12.30735 z M 425,255.62244 c 0,-0.20765 0.7875,-0.99515 1.75,-1.75 1.58606,-1.24387 1.62143,-1.2085 0.37756,0.37756 C 425.82119,255.91575 425,256.44548 425,255.62244 Z m 399.07895,-14.20577 c 0.048,-1.16495 0.28494,-1.4019 0.60416,-0.60417 0.28887,0.72187 0.25335,1.58437 -0.0789,1.91667 -0.33229,0.33229 -0.56864,-0.25834 -0.52522,-1.3125 z m 106,0 c 0.048,-1.16495 0.28494,-1.4019 0.60416,-0.60417 0.28887,0.72187 0.25335,1.58437 -0.0789,1.91667 -0.33229,0.33229 -0.56864,-0.25834 -0.52522,-1.3125 z M 637.15789,235 c 0,-1.375 0.22698,-1.9375 0.50439,-1.25 0.27741,0.6875 0.27741,1.8125 0,2.5 -0.27741,0.6875 -0.50439,0.125 -0.50439,-1.25 z m -140.39623,-7.70726 c 1.24391,-0.23919 3.04391,-0.23011 4,0.0202 0.95609,0.25029 -0.0617,0.446 -2.26166,0.4349 -2.2,-0.0111 -2.98225,-0.21589 -1.73834,-0.45508 z m 26.50737,0.0143 c 0.97297,-0.25354 2.32297,-0.23687 3,0.0371 0.67703,0.27393 -0.11903,0.48137 -1.76903,0.46099 -1.65,-0.0204 -2.20394,-0.2445 -1.23097,-0.49804 z m -82.45653,-1.99012 c 0.72187,-0.28887 1.58438,-0.25335 1.91667,0.0789 0.33229,0.33229 -0.25834,0.56864 -1.3125,0.52522 -1.16495,-0.048 -1.4019,-0.28494 -0.60417,-0.60416 z M 979.15789,200 c 0,-1.375 0.22698,-1.9375 0.50439,-1.25 0.27741,0.6875 0.27741,1.8125 0,2.5 -0.27741,0.6875 -0.50439,0.125 -0.50439,-1.25 z m -33.96294,-2.5 c 0.0204,-1.65 0.2445,-2.20394 0.49804,-1.23097 0.25354,0.97297 0.23687,2.32297 -0.0371,3 -0.27393,0.67703 -0.48137,-0.11903 -0.46099,-1.76903 z M 531.25,193.31067 c 0.9625,-0.25152 2.5375,-0.25152 3.5,0 0.9625,0.25153 0.175,0.45733 -1.75,0.45733 -1.925,0 -2.7125,-0.2058 -1.75,-0.45733 z m 681.5179,-1.0354 c 1.7974,-0.22256 4.4974,-0.21797 6,0.0102 1.5027,0.22818 0.032,0.41027 -3.2679,0.40466 -3.3,-0.006 -4.5294,-0.1923 -2.7321,-0.41486 z m 33.9821,-0.0178 c 3.9875,-0.18981 10.5125,-0.18981 14.5,0 3.9875,0.18982 0.725,0.34512 -7.25,0.34512 -7.975,0 -11.2375,-0.1553 -7.25,-0.34512 z M 1240.232,178 c 0,-1.925 0.2058,-2.7125 0.4573,-1.75 0.2516,0.9625 0.2516,2.5375 0,3.5 -0.2515,0.9625 -0.4573,0.175 -0.4573,-1.75 z"
         id="path6" />
      <path
         style="fill:#9fdbb1"
         d="m 416.25,755.26101 c 3.1625,-0.19845 8.3375,-0.19845 11.5,0 3.1625,0.19845 0.575,0.36082 -5.75,0.36082 -6.325,0 -8.9125,-0.16237 -5.75,-0.36082 z m -30.5,-13.92329 c 0.6875,-0.27741 1.8125,-0.27741 2.5,0 0.6875,0.27741 0.125,0.50439 -1.25,0.50439 -1.375,0 -1.9375,-0.22698 -1.25,-0.50439 z m 50,0 c 0.6875,-0.27741 1.8125,-0.27741 2.5,0 0.6875,0.27741 0.125,0.50439 -1.25,0.50439 -1.375,0 -1.9375,-0.22698 -1.25,-0.50439 z m 117.0625,-41.02083 c 0.72187,-0.28887 1.58438,-0.25335 1.91667,0.0789 0.33229,0.33229 -0.25834,0.56864 -1.3125,0.52522 -1.16495,-0.048 -1.4019,-0.28494 -0.60417,-0.60416 z M 587.25,659.27153 c 2.0625,-0.21574 5.4375,-0.21574 7.5,0 2.0625,0.21575 0.375,0.39226 -3.75,0.39226 -4.125,0 -5.8125,-0.17651 -3.75,-0.39226 z M 324.8125,490.31689 c 0.72187,-0.28887 1.58438,-0.25335 1.91667,0.0789 0.33229,0.33229 -0.25834,0.56864 -1.3125,0.52522 -1.16495,-0.048 -1.4019,-0.28494 -0.60417,-0.60416 z m 73,-21 c 0.72187,-0.28887 1.58438,-0.25335 1.91667,0.0789 0.33229,0.33229 -0.25834,0.56864 -1.3125,0.52522 -1.16495,-0.048 -1.4019,-0.28494 -0.60417,-0.60416 z m 69.9375,0.0208 c 0.6875,-0.27741 1.8125,-0.27741 2.5,0 0.6875,0.27741 0.125,0.50439 -1.25,0.50439 -1.375,0 -1.9375,-0.22698 -1.25,-0.50439 z m 224.01166,-22.04498 c 1.24391,-0.23919 3.04391,-0.23011 4,0.0202 0.95609,0.25029 -0.0617,0.446 -2.26166,0.4349 -2.2,-0.0111 -2.98225,-0.21589 -1.73834,-0.45508 z M 422.26375,410.28242 c 1.52006,-0.22986 3.77006,-0.22371 5,0.0136 1.22994,0.23736 -0.0138,0.42542 -2.76375,0.41792 -2.75,-0.008 -3.75631,-0.20172 -2.23625,-0.43157 z m -19.45125,-9.96553 c 0.72187,-0.28887 1.58438,-0.25335 1.91667,0.0789 0.33229,0.33229 -0.25834,0.56864 -1.3125,0.52522 -1.16495,-0.048 -1.4019,-0.28494 -0.60417,-0.60416 z m 69,0 c 0.72187,-0.28887 1.58438,-0.25335 1.91667,0.0789 0.33229,0.33229 -0.25834,0.56864 -1.3125,0.52522 -1.16495,-0.048 -1.4019,-0.28494 -0.60417,-0.60416 z m 194,-111 c 0.72187,-0.28887 1.58438,-0.25335 1.91667,0.0789 0.33229,0.33229 -0.25834,0.56864 -1.3125,0.52522 -1.16495,-0.048 -1.4019,-0.28494 -0.60417,-0.60416 z m 103,0 c 0.72187,-0.28887 1.58438,-0.25335 1.91667,0.0789 0.33229,0.33229 -0.25834,0.56864 -1.3125,0.52522 -1.16495,-0.048 -1.4019,-0.28494 -0.60417,-0.60416 z m 108,0 c 0.72187,-0.28887 1.58438,-0.25335 1.91667,0.0789 0.33229,0.33229 -0.25834,0.56864 -1.3125,0.52522 -1.16495,-0.048 -1.4019,-0.28494 -0.60417,-0.60416 z m 113,0 c 0.72187,-0.28887 1.58438,-0.25335 1.91667,0.0789 0.33229,0.33229 -0.25834,0.56864 -1.3125,0.52522 -1.16495,-0.048 -1.4019,-0.28494 -0.60417,-0.60416 z m 536.9375,-0.0403 c 1.7875,-0.22182 4.7125,-0.22182 6.5,0 1.7875,0.22183 0.325,0.40333 -3.25,0.40333 -3.575,0 -5.0375,-0.1815 -3.25,-0.40333 z M 1027.3494,281 c 0,-4.675 0.1723,-6.5875 0.3828,-4.25 0.2105,2.3375 0.2105,6.1625 0,8.5 -0.2105,2.3375 -0.3828,0.425 -0.3828,-4.25 z m 253.8826,3 c 0,-1.925 0.2058,-2.7125 0.4573,-1.75 0.2516,0.9625 0.2516,2.5375 0,3.5 -0.2515,0.9625 -0.4573,0.175 -0.4573,-1.75 z m 117,0 c 0,-1.925 0.2058,-2.7125 0.4573,-1.75 0.2516,0.9625 0.2516,2.5375 0,3.5 -0.2515,0.9625 -0.4573,0.175 -0.4573,-1.75 z m 18,0 c 0,-1.925 0.2058,-2.7125 0.4573,-1.75 0.2516,0.9625 0.2516,2.5375 0,3.5 -0.2515,0.9625 -0.4573,0.175 -0.4573,-1.75 z M 805.5,273 c 0.99549,-1.1 2.03498,-2 2.30998,-2 0.275,0 -0.31449,0.9 -1.30998,2 -0.99549,1.1 -2.03498,2 -2.30998,2 -0.275,0 0.31449,-0.9 1.30998,-2 z m 714.2679,1.27527 c 1.7974,-0.22256 4.4974,-0.21797 6,0.0102 1.5027,0.22818 0.032,0.41027 -3.2679,0.40466 -3.3,-0.006 -4.5294,-0.1923 -2.7321,-0.41486 z M 1161.4233,246.5 c 8e-4,-11.55 0.1464,-16.13804 0.3235,-10.19565 0.1771,5.94239 0.1764,15.39239 0,21 -0.1779,5.60761 -0.3228,0.74565 -0.322,-10.80435 z M 1027.4387,239 c 0,-15.125 0.139,-21.3125 0.3089,-13.75 0.1698,7.5625 0.1698,19.9375 0,27.5 -0.1699,7.5625 -0.3089,1.375 -0.3089,-13.75 z m 19.015,-10.5 c -3e-4,-20.9 0.1323,-29.59212 0.2947,-19.31582 0.1624,10.2763 0.1626,27.3763 5e-4,38 -0.1621,10.6237 -0.295,2.21582 -0.2952,-18.68418 z m -587.25875,20 c 0.0204,-1.65 0.2445,-2.20394 0.49804,-1.23097 0.25354,0.97297 0.23687,2.32297 -0.0371,3 -0.27393,0.67703 -0.48137,-0.11903 -0.46099,-1.76903 z M 930.15789,238 c 0,-1.375 0.22698,-1.9375 0.50439,-1.25 0.27741,0.6875 0.27741,1.8125 0,2.5 -0.27741,0.6875 -0.50439,0.125 -0.50439,-1.25 z M 506.75,227.26276 c 2.8875,-0.202 7.6125,-0.202 10.5,0 2.8875,0.202 0.525,0.36728 -5.25,0.36728 -5.775,0 -8.1375,-0.16528 -5.25,-0.36728 z M 1482.1579,225 c 0,-1.375 0.227,-1.9375 0.5044,-1.25 0.2774,0.6875 0.2774,1.8125 0,2.5 -0.2774,0.6875 -0.5044,0.125 -0.5044,-1.25 z M 635,207.62244 c 0,-0.20765 0.7875,-0.99515 1.75,-1.75 1.58606,-1.24387 1.62143,-1.2085 0.37756,0.37756 C 635.82119,207.91575 635,208.44548 635,207.62244 Z m 936.8125,-3.30555 c 0.7219,-0.28887 1.5844,-0.25335 1.9167,0.0789 0.3323,0.33229 -0.2584,0.56864 -1.3125,0.52522 -1.165,-0.048 -1.4019,-0.28494 -0.6042,-0.60416 z M 537.25,193.31067 c 0.9625,-0.25152 2.5375,-0.25152 3.5,0 0.9625,0.25153 0.175,0.45733 -1.75,0.45733 -1.925,0 -2.7125,-0.2058 -1.75,-0.45733 z M 1240.1579,173 c 0,-1.375 0.227,-1.9375 0.5044,-1.25 0.2774,0.6875 0.2774,1.8125 0,2.5 -0.2774,0.6875 -0.5044,0.125 -0.5044,-1.25 z m 65.6546,-4.68311 c 0.7219,-0.28887 1.5844,-0.25335 1.9167,0.0789 0.3323,0.33229 -0.2584,0.56864 -1.3125,0.52522 -1.165,-0.048 -1.4019,-0.28494 -0.6042,-0.60416 z M 640.07895,108.41667 c 0.048,-1.16495 0.28494,-1.4019 0.60416,-0.60417 0.28887,0.72187 0.25335,1.58437 -0.0789,1.91667 -0.33229,0.33229 -0.56864,-0.25834 -0.52522,-1.3125 z"
         id="path5" />
      <path
         style="fill:#fec147"
         d="m 1561,148.83333 c 0,-7.79166 0.2853,-13.88141 0.6339,-13.53276 0.9062,0.90617 1.0185,27.69994 0.1161,27.69966 -0.4125,-1.3e-4 -0.75,-6.37523 -0.75,-14.1669 z"
         id="path4" />
      <path
         style="fill:#82d09a"
         d="m 366.5,753.92048 c -20.82031,-1.68103 -45.0149,-3.99016 -52.5,-5.01061 -35.26384,-4.80751 -69.72821,-11.5413 -96.5,-18.85455 -27.03951,-7.38638 -59.42487,-18.35156 -78.5,-26.57889 -4.675,-2.01638 -9.57491,-4.08605 -10.88869,-4.59927 -1.31378,-0.51321 -2.15987,-1.16193 -1.88022,-1.44159 0.27966,-0.27966 5.85457,1.28031 12.38869,3.46659 28.88777,9.66569 65.86297,18.75601 109.88022,27.01395 9.15478,1.7175 27.41288,4.53009 39,6.00779 18.4138,2.34832 25.98326,3.12114 44.5,4.54336 49.58436,3.80845 83.65244,4.3555 127.5,2.04734 37.8044,-1.99004 51.70214,-3.12693 80.5,-6.5852 15.38294,-1.84731 42.39467,-5.88129 53,-7.91512 2.475,-0.47464 7.2,-1.34058 10.5,-1.9243 11.22966,-1.98638 26.97033,-5.20102 40.5,-8.27112 7.425,-1.68486 14.625,-3.29353 16,-3.57483 9.85298,-2.01573 43.37733,-11.08797 57.5,-15.56043 36.3238,-11.50327 64.93899,-28.6422 77.24465,-46.2653 3.83787,-5.49626 6.41659,-13.51629 6.38624,-19.86169 -0.0584,-12.20207 -9.67209,-25.56196 -25.39606,-35.29207 -7.48323,-4.63069 -6.78019,-5.31205 0.96432,-0.93459 8.77689,4.96099 12.98349,7.97616 18.4888,13.25225 7.03312,6.74029 10.59281,12.37196 12.5593,19.86963 1.62789,6.2067 1.62617,6.89618 -0.0329,13.22179 -6.63173,25.28495 -44.01101,50.39177 -104.71434,70.33426 -18.14308,5.96043 -33.29554,10.62965 -38.5,11.86375 -2.2,0.52168 -7.6,1.94389 -12,3.16048 -13.81393,3.81951 -38.35228,9.36724 -59,13.33896 -11.39514,2.19192 -18.61426,3.38877 -46,7.62627 -12.50789,1.9354 -27.00366,3.47579 -58,6.1634 -14.84811,1.28743 -109.24285,1.87049 -123,0.75974 z M 208.5,713 c -1.31874,-0.56668 -1.48906,-0.87815 -0.5,-0.9144 0.825,-0.0302 2.175,0.38124 3,0.9144 1.82797,1.18132 0.24909,1.18132 -2.5,0 z M 196,709.93247 c -3.575,-0.98809 -9.2,-2.50847 -12.5,-3.37862 -3.3,-0.87015 -13.875,-4.08837 -23.5,-7.15161 C 109.7896,683.42235 86.510727,668.7145 86.076078,652.69628 L 86,649.89256 l 11.25,0.68686 c 6.1875,0.37778 11.445,0.85945 11.68333,1.07039 0.23834,0.21094 -0.0992,0.91602 -0.75,1.56686 -0.65083,0.65083 -1.18333,2.67641 -1.18333,4.5013 0,2.6988 1.07301,4.40245 5.75,9.12946 6.63292,6.70386 11.31442,9.76595 27.2609,17.83091 13.18816,6.66994 14.38047,7.19063 33.9891,14.84331 7.975,3.11242 15.4,6.05277 16.5,6.53413 1.1,0.48135 4.925,1.83155 8.5,3.00043 10.59124,3.46292 8.53344,4.06398 -3,0.87626 z m 227.5,-0.50139 c -19.01877,-1.79629 -48.38464,-6.67525 -57,-9.47021 -1.65,-0.53528 -6.825,-2.12824 -11.5,-3.53992 -12.1847,-3.67931 -18.10225,-6.03102 -30.16748,-11.98896 -15.95633,-7.8794 -27.7912,-16.5416 -34.95065,-25.58114 l -3.13953,-3.96399 6.37883,4.34898 c 7.02258,4.78787 8.78912,5.71171 16.87883,8.82704 18.04598,6.94946 33.08853,10.14081 71,15.06298 12.74536,1.65477 57.16687,1.686 67.5,0.0475 24.47616,-3.88123 37.98944,-7.83412 57,-16.67357 8.29391,-3.85647 22.32359,-11.86685 23.5,-13.41755 0.275,-0.3625 1.91548,-1.54178 3.64551,-2.62064 7.88598,-4.91773 24.44606,-20.83569 34.81138,-33.46155 24.00109,-29.23543 48.19564,-79.86018 62.84641,-131.5 1.40437,-4.95 3.45611,-12.15 4.55943,-16 l 2.00603,-7 0.0656,4.84755 c 0.0806,5.95265 -3.2066,36.22607 -5.98862,55.15245 -5.24338,35.67132 -14.46767,68.64786 -25.13343,89.85119 -1.61881,3.21816 -2.74356,6.05092 -2.49945,6.29503 0.43453,0.43452 1.94826,0.13605 16.18712,-3.19177 26.31369,-6.14987 59.85253,-21.76937 79.5,-37.02424 16.03369,-12.44903 25.81387,-24.63278 32.05291,-39.93021 2.17213,-5.32584 2.43594,-7.4045 2.34785,-18.5 -0.0863,-10.87163 -0.43252,-13.36283 -2.65754,-19.12339 -6.22755,-16.1231 -15.40685,-24.10668 -31.02625,-26.98466 -18.0556,-3.32688 -44.86331,10.20981 -57.18999,28.87838 -1.55081,2.34868 -2.93079,4.14868 -3.06661,4 -0.13583,-0.14868 0.3546,-3.19533 1.08984,-6.77033 1.6205,-7.8794 4.44981,-29.21371 4.44981,-33.55353 0,-1.72633 0.78681,-3.83781 1.75,-4.69628 2.84729,-2.53774 13.13806,-7.34873 22.25,-10.40201 7.84306,-2.6281 9.6593,-2.84781 23.5,-2.84284 15.73801,0.006 19.44084,0.68952 30,5.54062 5.41889,2.48956 14.89783,9.96031 16.5466,13.04107 1.18368,2.21172 0.67261,2.47352 -1.22517,0.62762 -2.35576,-2.29135 -11.1827,-7.27476 -16.82143,-9.49684 -14.40323,-5.67595 -27.88506,-5.67752 -44.5,-0.005 -6.93832,2.36874 -20.5,8.61365 -20.5,9.43988 0,0.30878 0.7875,0.23629 1.75,-0.1611 5.46287,-2.25547 19.27722,-5.42724 28.60096,-6.56675 30.57126,-3.73632 54.70198,9.24143 67.27374,36.18052 2.58205,5.53288 5.3813,17.33243 5.35963,22.59219 -0.0207,5.01977 -3.52937,21.48869 -5.92185,27.79573 -6.26808,16.52382 -12.51975,26.08445 -25.51166,39.01476 -11.39368,11.33966 -12.47806,12.2127 -25.95499,20.89659 -22.06612,14.21835 -47.28847,24.94004 -81.34898,34.58037 -5.91077,1.67296 -12.32185,3.49692 -14.24685,4.05326 -1.925,0.55633 -7.59603,2.02139 -12.60229,3.25568 l -9.10229,2.24416 -5.8072,6.98102 C 555.71113,685.90006 536.24253,697.0204 496,705.63572 c -11.23035,2.40425 -23.56117,3.45423 -44.5,3.7892 -13.2,0.21118 -25.8,0.21395 -28,0.006 z M 531,699.79242 c 11.58438,-4.96838 23.94082,-11.58971 29.64907,-15.88776 7.16565,-5.39541 18.36984,-16.5745 21.01996,-20.97285 1.53141,-2.54167 1.74895,-2.58086 21.05957,-3.79434 18.06304,-1.13508 32.25303,-2.78089 43.28967,-5.02092 21.57338,-4.37858 27.7055,-6.00443 47.15207,-12.5017 21.10077,-7.04997 38.93576,-14.32029 71.2045,-29.02606 4.33117,-1.97384 8.09663,-3.58879 8.36771,-3.58879 1.44203,0 -13.65207,10.77101 -22.71972,16.21257 -31.06444,18.64201 -70.7145,33.90508 -118.02283,45.43224 -5.15188,1.25531 -6.71729,1.94713 -5,2.20971 2.62414,0.40124 21.94826,-1.38878 30.5,-2.82525 2.75,-0.46193 8.375,-1.38938 12.5,-2.06099 14.73626,-2.39928 32.80795,-6.15651 52.5,-10.91511 28.36006,-6.85324 28.64056,-6.86469 16,-0.65284 -37.17926,18.27069 -83.97498,32.20558 -129.5,38.56268 -35.57612,4.96784 -85.535,8.06107 -78,4.82941 z M 122,696 c -0.825,-0.53316 -1.05,-0.96937 -0.5,-0.96937 0.55,0 1.675,0.43621 2.5,0.96937 0.825,0.53316 1.05,0.96937 0.5,0.96937 -0.55,0 -1.675,-0.43621 -2.5,-0.96937 z M 70.834826,654.75 c -4.959055,-6.70826 -5.963963,-12.01528 -3.550395,-18.75 2.234869,-6.23609 5.145157,-9.87061 14.656006,-18.30319 7.906852,-7.01042 27.218913,-17.90367 45.559563,-25.69853 6.6,-2.80503 13.35,-5.71467 15,-6.46587 8.39662,-3.82274 44.18544,-15.57782 61.43074,-20.17733 16.0866,-4.29047 19.33788,-5.0306 28.56926,-6.50355 3.85,-0.6143 7.11097,-1.20567 7.2466,-1.31416 0.13564,-0.10848 -0.36349,-2.41127 -1.10916,-5.11731 -1.75512,-6.36927 -4.21267,-19.84679 -6.36749,-34.92006 -1.85481,-12.97462 -2.51691,-62.32764 -0.93769,-69.89525 l 0.81286,-3.89525 1.82848,3.00669 c 2.08795,3.43335 5.37729,5.94382 12.5264,9.56032 14.11482,7.14021 23.78466,10.02648 54,16.11804 23.34753,4.70697 54.00297,9.15708 83.75,12.15759 18.09249,1.82494 -0.0277,3.63378 -64.75,6.46363 -33.55065,1.46694 -45.45154,4.2691 -53.86551,12.68307 -13.56106,13.56106 -13.81065,38.16691 -0.95654,94.30116 1.95212,8.525 4.42594,18.56672 5.49737,22.31494 1.07143,3.74822 1.77948,7.32067 1.57344,7.93877 C 270.726,631.322 256.21868,603.09824 247.20283,580.5 c -0.87772,-2.2 -1.65142,-4.1065 -1.71933,-4.23666 -0.24108,-0.46204 -27.12503,5.72852 -35.9835,8.28592 -28.60237,8.25736 -52.75086,17.73527 -80.25,31.4969 -8.3875,4.19743 -15.25,7.48923 -15.25,7.31513 C 114,622.91291 134.81569,609 135.48654,609 c 0.30426,0 2.23176,-1.05147 4.28333,-2.3366 15.90603,-9.96373 50.79562,-24.7668 72.53477,-30.7753 2.30745,-0.63775 3.67971,-1.34536 3.04947,-1.57246 -0.98934,-0.35649 -24.11734,5.09442 -32.85411,7.7432 -9.63257,2.92037 -44.16081,14.34111 -45,14.88443 -0.55,0.3561 -3.7,1.70758 -7,3.00331 -19.04599,7.47829 -38.706957,18.59416 -47.938078,27.10311 -9.452846,8.71333 -13.144658,18.32781 -10.256506,26.71074 0.803359,2.33176 1.341697,4.23957 1.196307,4.23957 -0.14539,0 -1.345493,-1.4625 -2.666897,-3.25 z M 221.5,573 c 1.26064,-0.54172 1.44548,-0.85943 0.5,-0.85943 -0.825,0 -2.4,0.38674 -3.5,0.85943 -1.26064,0.54172 -1.44548,0.85943 -0.5,0.85943 0.825,0 2.4,-0.38674 3.5,-0.85943 z m 467.4801,2.74307 C 684.00614,571.63571 661.4392,562.09325 644,556.72319 c -6.06826,-1.8686 -0.69319,-1.98472 9.74596,-0.21054 27.17503,4.61851 46.9672,8.87336 48.58699,10.44504 0.45812,0.44451 -0.99481,2.4993 -3.22872,4.5662 -6.891,6.3758 -7.30404,6.54793 -10.12413,4.21918 z m -51.1676,-21.42618 c 0.72187,-0.28887 1.58438,-0.25335 1.91667,0.0789 0.33229,0.33229 -0.25834,0.56864 -1.3125,0.52522 -1.16495,-0.048 -1.4019,-0.28494 -0.60417,-0.60416 z M 381,468.9374 c -30.08279,-1.16479 -66.79375,-4.62788 -84,-7.92405 -2.475,-0.47413 -7.425,-1.40311 -11,-2.06439 -20.63434,-3.81684 -35.81325,-9.3535 -39.90547,-14.55592 -2.80324,-3.56373 -2.63881,-5.79836 0.65547,-8.90784 13.37689,-12.62651 76.48985,-22.58619 154.25,-24.34176 l 28.5,-0.64344 -5.22858,-5.25 c -6.19323,-6.2186 -3.50678,-5.96487 -39.77142,-3.75637 -43.26755,2.63497 -75.28003,6.30507 -101,11.57922 -18.64373,3.8231 -38.63953,10.72641 -45.25,15.62203 -3.63259,2.69025 -3.89664,2.45625 -1.80108,-1.5961 4.80086,-9.28385 20.28051,-16.30484 48.63617,-22.05953 15.29902,-3.10489 38.89036,-6.48353 56.41491,-8.07948 14.90961,-1.35781 49.50065,-3.88599 57.5,-4.20255 l 6.5,-0.25722 -12,-3.84472 c -6.6,-2.11459 -13.35,-4.23372 -15,-4.70918 -26.61175,-7.66834 -40.54982,-12.5671 -54,-18.97916 -10.1784,-4.85232 -25.84098,-14.60637 -31.58275,-19.66852 -19.89773,-17.54253 -29.84704,-32.90286 -33.56336,-51.81713 -1.4203,-7.22858 -1.4878,-9.52432 -0.45067,-15.32774 1.64648,-9.21312 4.75966,-15.53947 11.00918,-22.37193 7.83174,-8.56227 15.53875,-13.01006 37.0876,-21.40358 43.56667,-16.96973 63.18393,-24.97947 76.5,-31.23501 11.94187,-5.60998 17.41175,-8.59292 31.98058,-17.44027 7.96286,-4.83567 22.45919,-17.84619 29.19515,-26.20276 10.7372,-13.32047 20.43226,-35.90481 24.44339,-56.94013 1.28636,-6.745993 1.34725,-6.843897 2.17663,-3.499998 0.46929,1.892068 0.91599,13.565128 0.99265,25.940128 0.13294,21.45834 0.0122,23.00796 -2.60868,33.47186 -2.56864,10.25547 -8.59109,26.25237 -11.08019,29.43133 -0.93386,1.19268 0.55145,1.31936 9.90089,0.84441 6.04977,-0.30733 9.87458,-0.365 8.49958,-0.12816 -9.60086,1.65372 -17,4.8957 -17,7.44865 0,0.53397 6.29854,0.92993 14.75,0.92728 14.68155,-0.005 14.76402,-0.0174 17.77191,-2.75 9.75544,-8.86271 16.20238,-14.36898 25.47809,-21.7606 4.125,-3.28713 7.725,-6.23723 8,-6.55579 0.275,-0.31855 4.1,-3.39009 8.5,-6.82563 4.4,-3.43555 8.67649,-6.77675 9.5033,-7.4249 7.29144,-5.71583 11.03489,-8.44525 21.30105,-15.53101 C 571.79673,131.66635 577.49673,128 577.97101,128 c 0.47428,0 1.01232,-0.35228 1.19566,-0.78285 C 580.25218,124.6678 631.28299,96 634.73553,96 c 0.4929,0 1.87905,1.74877 3.08033,3.886155 4.1166,7.324515 2.53536,15.927055 -5.01778,27.298535 -2.08894,3.14496 -3.79808,5.95086 -3.79808,6.23532 0,0.28446 -1.74035,3.11883 -3.86745,6.2986 -11.7348,17.54214 -13.71999,20.53622 -14.63255,22.06888 -0.55,0.92373 -2.17522,3.48694 -3.61159,5.69601 -1.43638,2.20908 -5.55943,8.84121 -9.16233,14.73809 l -6.55074,10.72158 13.16233,0.27842 L 617.5,193.5 l 0.29449,2.52275 c 0.29035,2.48721 -0.84621,3.88529 -20.50832,25.22725 -3.35644,3.6432 -3.65892,3.75211 -10.6205,3.82412 -3.94112,0.0408 -9.16912,0.37827 -11.61777,0.75 -4.30578,0.65367 -4.60637,0.93881 -9.14582,8.67588 C 557.24965,249.24723 552,259.8489 552,262.57522 c 0,3.25858 2.47345,5.34983 6.3786,5.39298 1.58322,0.0175 8.48906,-2.69987 15.34629,-6.03857 6.85724,-3.3387 12.69219,-5.84588 12.96657,-5.57151 0.27437,0.27438 0.20734,1.82617 -0.14897,3.44843 -0.53288,2.4262 -3.4331,4.86799 -16.34516,13.76153 C 549.55459,287.78633 541.46991,292 534.83234,292 525.00594,292 518,285.47637 518,276.32644 c 0,-6.12902 2.69612,-12.32006 14.07775,-32.32644 0.78224,-1.375 1.91492,-3.175 2.51707,-4 0.60214,-0.825 2.54767,-4.0875 4.32339,-7.25 l 3.22857,-5.75 -33.82339,0.0168 -33.82339,0.0168 -7.43988,7.23322 -7.43988,7.23321 0.18075,11.04327 c 0.18903,11.54928 2.99105,23.9702 6.79546,30.1233 6.29335,10.17858 9.04098,13.68133 15.59178,19.87678 9.98556,9.44391 19.16198,15.72298 38.02909,26.02185 17.36054,9.47648 27.79825,18.65842 32.83071,28.8808 2.83233,5.75329 3.13993,7.21293 2.79421,13.25948 -0.4619,8.07859 -4.67237,17.36754 -10.9578,24.17461 -2.20151,2.38422 -3.86362,4.44228 -3.69359,4.57347 0.17003,0.13119 6.38415,1.24891 13.80915,2.48381 7.425,1.23491 17.325,3.09493 22,4.13338 4.675,1.03845 11.875,2.61291 16,3.49879 7.6779,1.64891 15.79166,4.08622 9.51865,2.85933 -3.43755,-0.67233 -22.70461,-3.02302 -59.92793,-7.31155 l -6.90929,-0.79603 -6.30457,4.77191 -6.30457,4.77192 5.71385,0.59298 c 25.63109,2.66 38.9827,4.52322 54.12877,7.5537 9.84245,1.96932 23.03577,5.38264 26.58509,6.87799 8.25916,3.47965 12.99262,6.93625 14.0468,10.25765 1.42001,4.47408 -7.47959,10.99591 -19.87204,14.56266 -18.9337,5.44944 -46.06814,9.86123 -78.67476,12.79173 -35.61017,3.20045 -97.29857,4.24382 -144,2.43557 z m 119.25,-60.5031 c 0.9625,-1.93408 1.75,-4.11094 1.75,-4.83747 0,-1.52559 -6.21233,-2.18526 -30.25,-3.21214 l -15.75,-0.67283 -0.0136,3.39407 c -0.008,1.86674 -0.28202,4.39519 -0.61002,5.61877 -0.59634,2.22462 -0.59572,2.22471 15.76365,2.52657 8.99801,0.16602 18.83502,0.39133 21.86002,0.50069 5.36529,0.19396 5.54286,0.11271 7.25,-3.31766 z M 505,389.6815 c 0,-5.70146 -2.1772,-14.30644 -4.85323,-19.1815 -3.19438,-5.81936 -7.72561,-11.14359 -21.27643,-25 -7.53019,-7.7 -15.6106,-16.25 -17.95646,-19 -6.4918,-7.61017 -14.41016,-20.23315 -17.5745,-28.01622 C 440.76594,292.15411 440.5,290.37607 440.5,279.5 c 0,-11.61676 0.31958,-13.37011 4.00157,-21.95449 1.64204,-3.82833 1.63717,-3.90866 -0.15271,-2.51772 -2.36679,1.83927 -15.93859,13.52229 -24.34886,20.96026 -15.80186,13.97502 -20.44493,17.74064 -26.21633,21.26195 -3.38042,2.0625 -7.18964,3.75 -8.46494,3.75 -1.2753,0 -2.31873,0.28741 -2.31873,0.63868 0,2.55499 23.63415,27.39183 37,38.88284 8.9582,7.70163 10.26525,8.80015 15.44877,12.98406 5.78235,4.66724 10.56447,9.76138 14.22026,15.14806 3.00304,4.42489 6.32464,13.4573 6.34462,17.25291 0.036,6.8407 0.38105,7.08145 10.35298,7.22415 5.02335,0.0719 12.50837,0.44913 16.63337,0.83831 4.125,0.38918 10.7625,0.78037 14.75,0.8693 L 505,395 Z M 383.1738,284.11068 c 5.66224,-8.64746 15.21207,-18.12816 25.3262,-25.14289 4.28909,-2.97473 5.89116,-3.49169 11.26779,-3.6359 l 6.26779,-0.16811 15.07964,-14.33189 15.07963,-14.33189 -6.84742,-0.63665 c -3.76609,-0.35015 -10.24829,-0.78182 -14.4049,-0.95926 l -7.55747,-0.32261 -11.94253,8.34261 c -30.40317,21.23853 -37.57967,27.82257 -40.86111,37.48784 -2.06511,6.08265 -1.99956,8.03021 0.54635,16.23273 1.84205,5.93478 2.27847,6.60163 3.25,4.96602 0.61723,-1.03913 2.77544,-4.41413 4.79603,-7.5 z m 181.43759,-91.43889 c 0.0669,-0.0945 9.45555,-14.12179 20.86366,-31.17179 11.40812,-17.05 21.59319,-31.929 22.63349,-33.06445 1.0403,-1.13545 1.89146,-2.41447 1.89146,-2.84227 0,-0.4278 0.9063,-1.93 2.014,-3.33821 1.10771,-1.40822 1.82188,-2.75253 1.58705,-2.98736 -0.59986,-0.59985 -19.25258,10.68352 -30.60105,18.51115 -24.37611,16.81345 -55.36182,40.99281 -68,53.06306 l -3.5,3.34272 26.49488,-0.67053 c 14.57218,-0.36879 26.54961,-0.74784 26.61651,-0.84232 z m 72.46756,266.74488 c 0.048,-1.16495 0.28494,-1.4019 0.60416,-0.60417 0.28887,0.72187 0.25335,1.58438 -0.0789,1.91667 -0.33229,0.33229 -0.56864,-0.25834 -0.52522,-1.3125 z M 1506,342.05855 c -7.9931,-1.93307 -12.2522,-3.76558 -17.3099,-7.44758 -11.4134,-8.30913 -14.5,-18.74619 -8.0741,-27.30276 1.3183,-1.75548 6.5566,-6.40501 11.6405,-10.33229 5.0839,-3.92728 9.3682,-7.47743 9.5205,-7.88924 0.1524,-0.4118 -1.5647,-1.35655 -3.8157,-2.09944 -7.3217,-2.41638 -15.9613,-11.75181 -15.9613,-17.2468 0,-0.72809 2.3625,-2.48995 5.25,-3.91523 5.2092,-2.57131 15.75,-10.37894 15.75,-11.66617 0,-0.36895 -1.4625,-1.31655 -3.25,-2.10578 -5.3224,-2.34998 -13.1874,-10.95392 -15.0737,-16.48989 -6.1261,-17.97916 3.9118,-36.13121 23.8237,-43.08166 5.1544,-1.79919 13.4223,-3.41047 17.5,-3.41047 5.8192,0 15.9734,2.42089 21.7401,5.18312 2.2897,1.09677 25.5188,-0.62108 31.5099,-2.33023 4.3471,-1.24013 4.1219,2.48599 -0.4976,8.23434 L 1575.6653,204 h -7.8327 c -4.3079,0 -7.8326,0.14078 -7.8326,0.31285 0,0.17206 1.2072,2.75956 2.6828,5.75 7.6507,15.50564 0.8599,34.19075 -15.3791,42.31632 -7.232,3.61869 -21.8171,5.85186 -30.2853,4.63708 -5.886,-0.84438 -6.6825,-0.74095 -8.6696,1.12575 -3.4325,3.22475 -4.8476,7.4679 -3.4865,10.45502 2.2306,4.89571 6.5174,5.70509 31.1377,5.87905 20.8692,0.14746 22.9236,0.32492 28.3442,2.44855 14.6663,5.74579 20.181,18.63583 14.4333,33.7364 -4.4937,11.80592 -20.722,24.52765 -37.5629,29.4464 -7.4817,2.18518 -29.2579,3.39173 -35.2146,1.95113 z m 43.2534,-13.79636 c 10.1362,-4.7433 14.7466,-10.97 14.7466,-19.91643 0,-9.01799 -4.7881,-14.77977 -14.4448,-17.38217 -7.199,-1.94008 -31.9661,-1.73558 -36.5552,0.30183 -4.5473,2.01886 -10.6999,6.93928 -13.6113,10.88538 -6.6428,9.0039 -2.3156,20.78883 9.6113,26.17539 6.8071,3.07431 10.478,3.60234 22.661,3.25962 9.9518,-0.27996 11.8577,-0.64002 17.5924,-3.32362 z m -15.7966,-79.3469 c 8.7047,-4.09168 13.1355,-13.70981 12.2999,-26.70005 -0.8697,-13.52074 -7.1705,-22.91555 -16.9406,-25.25936 -11.6125,-2.78579 -21.1902,3.26059 -24.4283,15.4215 -6.2615,23.51532 10.8954,45.08051 29.069,36.53791 z m -881.13501,38.61952 c -11.85809,-3.3367 -22.4292,-10.92327 -27.66181,-19.85204 -14.48678,-24.71982 -4.78611,-53.2854 23.41925,-68.96273 10.68737,-5.94034 18.95108,-8.16652 30.42077,-8.19511 11.64805,-0.029 17.86804,1.50549 22.89372,5.64808 4.83499,3.98541 4.85591,7.51069 0.0729,12.29366 C 699.52333,210.41 697.47364,212 696.9118,212 c -0.56185,0 -3.59492,-1.74755 -6.74017,-3.88345 -7.84551,-5.32778 -14.2853,-7.46496 -22.74234,-7.54752 -5.97648,-0.0583 -7.98387,0.39798 -12.97146,2.94873 -10.71502,5.47986 -17.01989,17.41114 -16.90045,31.98224 0.12962,15.81334 7.5234,28.71861 19.94262,34.8083 13.78285,6.75835 27.17589,5.67123 40.69632,-3.30333 5.33552,-3.5416 5.79473,-3.67235 7.25,-2.06429 0.85452,0.94424 1.55368,2.2228 1.55368,2.84125 0,2.2397 -14.10084,13.19141 -21.67531,16.83459 -7.10913,3.41935 -8.59473,3.7578 -17.79077,4.05313 -6.6654,0.21406 -11.77231,-0.16692 -15.21213,-1.13484 z m 104.82979,0.45247 c -17.49107,-3.6869 -31.89168,-18.89579 -35.2583,-37.23728 -5.21053,-28.38708 22.82198,-57.77894 57.60672,-60.40017 12.5037,-0.94223 25.1265,2.94892 28.38209,8.74917 1.23167,2.19438 1.18603,2.95519 -0.3746,6.24398 -0.97745,2.05982 -3.09362,4.42588 -4.70261,5.25792 -2.66728,1.3793 -3.17593,1.35336 -5.76419,-0.29405 -9.64925,-6.14168 -12.63351,-7.65222 -17.79041,-9.00496 -10.90322,-2.86008 -21.47099,0.31392 -29.49272,8.85805 -12.81728,13.65198 -11.40097,40.85268 2.82942,54.34006 4.25185,4.02985 12.63974,8.12347 19.69665,9.61275 9.8846,2.08602 24.21899,-1.86161 31.59515,-8.70117 2.94082,-2.72688 3.86357,-2.68526 5.82084,0.26254 1.25894,1.89606 0.97824,2.4407 -3.4402,6.67517 -11.80763,11.31602 -21.44982,15.75386 -35.25942,16.22824 -5.225,0.17949 -11.45679,-0.0861 -13.84842,-0.59025 z M 866,288.28874 c -15.61836,-2.74195 -29.72037,-13.1652 -36.57124,-27.03096 -3.57641,-7.23846 -3.86016,-8.4721 -4.23879,-18.42851 -0.34092,-8.96479 -0.0633,-11.69994 1.73658,-17.10856 5.29139,-15.90064 17.36097,-27.36889 35.07345,-33.32604 6.8154,-2.29219 24.08788,-2.56696 31.5,-0.5011 15.16883,4.22777 27.68159,14.70093 33.58,28.10643 2.1695,4.93067 2.41972,6.89744 2.41732,19 l -0.003,13.5 -3.7349,7.64603 c -6.6245,13.56158 -18.83027,23.29309 -34.25437,27.31055 -5.51057,1.43532 -19.47457,1.89092 -25.50538,0.83216 z m 27.76902,-9.94318 c 8.8834,-5.48059 12.82352,-14.25464 13.9564,-31.07876 1.79774,-26.69782 -10.33898,-47.67602 -28.84052,-49.85051 -11.72794,-1.37839 -21.71972,4.41497 -27.30563,15.83215 -7.11649,14.5456 -5.28391,40.12549 3.85085,53.75156 7.50094,11.18895 14.88866,15.20944 26.8389,14.60608 5.35346,-0.27029 7.75839,-0.95215 11.5,-3.26052 z m 84.87105,9.07976 c -6.33505,-2.0204 -13.66241,-9.26251 -16.14837,-15.9605 -1.58463,-4.26952 -1.92315,-9.23619 -2.4172,-35.46482 -0.31597,-16.775 -0.91827,-31.02967 -1.33843,-31.67704 -0.74275,-1.14442 -4.37933,-2.51084 -9.98607,-3.7522 -2.02832,-0.44908 -2.75,-1.21363 -2.75,-2.91337 0,-2.19572 0.53104,-2.36322 11.25,-3.5485 6.1875,-0.68421 13.40965,-1.66361 16.04922,-2.17645 2.63957,-0.51284 5.11457,-0.93273 5.5,-0.93309 0.38543,-3.6e-4 0.55483,14.39441 0.37644,31.98837 -0.35601,35.11267 0.19144,39.72981 5.45206,45.98169 4.3546,5.17515 7.86102,6.47321 17.37228,6.43111 7.5093,-0.0332 9.2576,-0.41178 15,-3.24757 3.575,-1.76547 7.5439,-4.0822 8.8198,-5.1483 l 2.3199,-1.93836 -0.3199,-28.32971 c -0.3961,-35.08388 0.2319,-33.57602 -15.0698,-36.18726 -3.1411,-0.53603 -3.75,-1.03854 -3.75,-3.09463 0,-1.67038 0.5592,-2.45532 1.75,-2.45667 3.1142,-0.004 30.4963,-3.02172 32.9098,-3.62748 l 2.3402,-0.58736 0.024,36.85841 c 0.024,36.39261 0.5062,43.31706 3.2077,46.01855 0.7583,0.7583 4.3914,1.66005 8.0735,2.00389 6.5232,0.60915 6.6949,0.69723 6.6949,3.43526 0,2.47212 -0.451,2.88343 -3.75,3.41995 -9.2741,1.50826 -21.0077,3.71886 -23.75,4.4745 -1.65,0.45465 -4.2375,1.10062 -5.75,1.4355 l -2.75,0.60886 v -8.01905 c 0,-4.41048 -0.2443,-8.01905 -0.5429,-8.01905 -0.2986,0 -2.8861,1.76892 -5.75,3.93093 -2.8639,2.16201 -8.7799,5.6275 -13.1468,7.70109 -6.9591,3.30455 -8.99682,3.80555 -16.49996,4.05671 -5.69795,0.19073 -10.1854,-0.23173 -13.42027,-1.26341 z m 255.99723,0.16183 c -5.2425,-1.93942 -9.1975,-5.95692 -11.3026,-11.48121 -1.5255,-4.00335 -1.8007,-9.21764 -2.1033,-39.85594 L 1220.8833,201 h -7.8827 c -4.7459,0 -8.1584,-0.44629 -8.5757,-1.12157 -0.3827,-0.61912 0.6865,-2.41105 2.3867,-4 2.628,-2.45607 3.8949,-2.87843 8.6342,-2.87843 H 1221 v -9.07143 c 0,-6.06568 0.4222,-9.46194 1.2742,-10.25 9.5238,-8.80916 15.7818,-13.59433 17.1112,-13.08418 1.3518,0.51874 1.4723,2.662 0.9274,16.50089 L 1239.6867,193 h 14.6566 c 14.1455,0 14.6567,0.072 14.6567,2.06574 0,1.13616 -0.4658,2.93616 -1.0352,4 -0.9451,1.76589 -2.2118,1.93426 -14.552,1.93426 h -13.5167 l 0.3019,31.75 c 0.2862,30.09038 0.415,31.99458 2.4644,36.429 1.3572,2.93689 3.2934,5.26393 5.2003,6.25 3.859,1.99555 10.6442,2.00907 16.2468,0.0324 4.0415,-1.42593 4.4545,-1.41059 5.6392,0.20957 2.2859,3.12626 2.0239,3.35644 -10.2487,9.00387 -9.2528,4.25784 -18.3463,5.32302 -24.8627,2.91233 z M 1076,284.22805 c 0,-2.63197 0.3408,-2.83509 6.75,-4.0225 7.4205,-1.37479 9.8009,-3.25899 10.7723,-8.52691 0.3224,-1.74825 0.4493,-16.33158 0.2819,-32.40739 l -0.3042,-29.22874 -2.6323,-2.63083 c -1.8162,-1.81523 -4.0639,-2.79218 -7.25,-3.1513 -4.2776,-0.48215 -4.6177,-0.72855 -4.6177,-3.34512 0,-2.48235 0.4544,-2.90303 3.75,-3.47155 6.9238,-1.19442 20.0096,-4.52826 25.1524,-6.40803 L 1113,189.17244 v 8.38783 8.38784 l 5.25,-3.13298 C 1135.5514,192.49038 1141.6172,190 1149.4636,190 c 10.3183,0 20.6732,5.08822 25.3132,12.43848 4.5671,7.2348 5.1967,12.0525 5.2352,40.06152 0.02,14.3 0.4528,27.8 0.9625,30 1.1785,5.08649 3.9193,7.28437 10.1071,8.10522 4.5977,0.6099 4.9184,0.83966 4.9184,3.52361 V 287 h -25 -25 v -2.79992 c 0,-2.61745 0.3906,-2.88061 5.9939,-4.03796 9.4243,-1.94655 9.5061,-2.23179 9.5061,-33.16212 0,-21.83291 -0.2549,-26.22991 -1.7724,-30.57558 -5.2827,-15.12754 -22.4085,-17.94763 -40.9776,-6.74772 l -5.75,3.46811 v 30.70509 c 0,35.69978 -0.3272,34.38447 9.0342,36.31803 5.5739,1.15127 5.9658,1.41616 5.9658,4.03215 V 287 h -26 -26 z m 206,-0.028 c 0,-2.60996 0.3971,-2.88195 5.853,-4.00885 10.0228,-2.07018 9.6019,-0.50349 9.9381,-36.98831 0.2056,-22.30735 -0.05,-32.41342 -0.8695,-34.39214 -1.1345,-2.73892 -2.9461,-3.59583 -11.1716,-5.28437 -2.0533,-0.42151 -2.75,-1.15583 -2.75,-2.89871 0,-2.14646 0.7349,-2.47623 9.137,-4.09994 5.0254,-0.97116 12.513,-2.8372 16.6391,-4.14675 4.1261,-1.30956 7.6644,-2.38101 7.863,-2.38101 0.1985,0 0.3609,18.23945 0.3609,40.53212 0,50.02454 -0.4523,48.27776 12.9608,50.05707 4.727,0.62705 5.0392,0.84637 5.0392,3.53964 V 287 h -26.5 -26.5 z m 65,-0.0236 c 0,-2.67034 0.3362,-2.88603 6.1984,-3.97622 10.6935,-1.98866 10.2506,-0.55066 10.6184,-34.47649 0.1743,-16.07309 0.033,-31.14483 -0.3141,-33.49276 -0.7357,-4.97757 -3.0645,-6.9217 -9.623,-8.03347 -3.776,-0.64012 -4.4226,-1.11056 -4.6906,-3.41326 -0.2793,-2.39862 0.077,-2.73147 3.5,-3.26595 6.0367,-0.94272 20.3675,-4.61402 25.5236,-6.53869 l 4.7127,-1.75916 0.2873,8.40917 0.2873,8.40917 7,-4.35397 c 3.85,-2.39468 10.15,-5.89093 14,-7.76943 6.4447,-3.1445 7.714,-3.40968 16,-3.34268 7.6823,0.0621 9.7554,0.46047 14.1591,2.72079 6.0905,3.12605 11.3449,9.25727 13.8888,16.20644 1.5692,4.28651 1.9105,9.36644 2.3913,35.59928 0.4336,23.66144 0.8688,30.96975 1.9193,32.23321 0.7472,0.89866 4.0097,2.18152 7.25,2.8508 5.4962,1.1352 5.8915,1.40475 5.8915,4.01679 V 287 h -24.5 -24.5 v -2.79463 c 0,-2.56674 0.4689,-2.91329 5.75,-4.25 9.24,-2.33871 9.374,-2.85854 9.013,-34.95537 -0.2774,-24.66491 -0.4456,-26.80336 -2.4288,-30.88077 -4.1631,-8.55918 -10.3078,-11.64064 -21.7484,-10.90643 -7.1845,0.46107 -13.6103,2.90205 -21.329,8.10222 l -3.2431,2.18498 -0.01,29.84571 c -0.01,35.40596 -0.1267,34.93149 9.2124,36.86044 5.3804,1.11129 5.7808,1.38796 5.7808,3.99393 V 287 h -25.5 -25.5 z m -46.6119,-117.15658 c -3.3879,-1.36886 -6.3881,-5.94826 -6.3881,-9.7505 0,-10.76846 14.6057,-16.28048 21.4829,-8.1074 3.2847,3.90368 3.9712,6.932 2.5486,11.24262 -2.0218,6.12613 -10.7523,9.39958 -17.6434,6.61528 z"
         id="path3" />
      <path
         style="fill:#fea200"
         d="M 1597,178.04901 V 163.04723 L 1579.75,162.77361 1562.5,162.5 1562.3836,148.75 1562.2672,135 H 1579.6336 1597 v -15.02539 -15.0254 l 15.7129,0.2754 15.7129,0.27539 -0.025,14.75 -0.025,14.75 H 1646.1882 1664 v 14 14 h -17.8118 -17.8119 l 0.025,14.75 0.025,14.75 -15.7129,0.27539 -15.7129,0.2754 z"
         id="path2" />
    </g>
  </g>
</svg>
